<svg width="58" height="53" viewBox="0 0 58 53" fill="none" xmlns="http://www.w3.org/2000/svg">
<rect width="57.5" height="53" rx="12" fill="#2DA482" fill-opacity="0.2"/>
<rect x="0.5" y="0.5" width="56.5" height="52" rx="11.5" stroke="#2DA482" stroke-opacity="0.3"/>
<path d="M14.7625 23.5C14.6625 23.125 14.5938 22.75 14.5562 22.375C14.5187 22 14.5 21.6125 14.5 21.2125C14.5 18.8625 15.2875 16.9062 16.8625 15.3438C18.4375 13.7812 20.4 13 22.75 13C24.025 13 25.2563 13.275 26.4438 13.825C27.6313 14.375 28.65 15.15 29.5 16.15C30.35 15.15 31.3625 14.375 32.5375 13.825C33.7125 13.275 34.95 13 36.25 13C38.6 13 40.5625 13.7812 42.1375 15.3438C43.7125 16.9062 44.5 18.8625 44.5 21.2125C44.5 21.2375 44.5 21.25 44.5 21.25C44.5 21.25 44.5 21.2625 44.5 21.2875C44.025 20.8625 43.5125 20.4938 42.9625 20.1813C42.4125 19.8688 41.825 19.6125 41.2 19.4125C40.85 18.3875 40.225 17.5625 39.325 16.9375C38.425 16.3125 37.4 16 36.25 16C35.175 16 34.1375 16.3187 33.1375 16.9562C32.1375 17.5938 31.2125 18.525 30.3625 19.75H28.6375C27.8125 18.55 26.8875 17.625 25.8625 16.975C24.8375 16.325 23.8 16 22.75 16C21.275 16 20.0312 16.5063 19.0188 17.5188C18.0063 18.5312 17.5 19.7625 17.5 21.2125C17.5 21.6125 17.5375 21.9937 17.6125 22.3562C17.6875 22.7188 17.8 23.1 17.95 23.5H14.7625ZM29.5 40L24.7375 35.725C24.0625 35.1 23.4375 34.525 22.8625 34C22.2875 33.475 21.75 32.975 21.25 32.5H25.6375C26.2125 33 26.8188 33.5375 27.4563 34.1125C28.0938 34.6875 28.775 35.3 29.5 35.95C29.925 35.6 30.3188 35.2625 30.6812 34.9375C31.0437 34.6125 31.4 34.2875 31.75 33.9625C32.1 34.3375 32.4688 34.6812 32.8563 34.9937C33.2438 35.3062 33.6625 35.5875 34.1125 35.8375L29.5 40ZM38.5 34C38.075 34 37.7188 33.8563 37.4312 33.5688C37.1437 33.2812 37 32.925 37 32.5C37 32.075 37.1437 31.7188 37.4312 31.4312C37.7188 31.1437 38.075 31 38.5 31C38.925 31 39.2812 31.1437 39.5688 31.4312C39.8563 31.7188 40 32.075 40 32.5C40 32.925 39.8563 33.2812 39.5688 33.5688C39.2812 33.8563 38.925 34 38.5 34ZM37 29.5V22H40V29.5H37ZM13 29.5C13 29 13 28.5 13 28C13 27.5 13 27 13 26.5H19.675L22.3 22.6375C22.45 22.4125 22.6313 22.25 22.8438 22.15C23.0562 22.05 23.2875 22 23.5375 22C23.7875 22 24.0188 22.0562 24.2312 22.1687C24.4437 22.2812 24.625 22.45 24.775 22.675L27.325 26.5H29.65C29.6 26.75 29.5625 26.9937 29.5375 27.2312C29.5125 27.4688 29.5 27.725 29.5 28C29.5 28.275 29.5125 28.5312 29.5375 28.7688C29.5625 29.0063 29.6 29.25 29.65 29.5H26.5C26.25 29.5 26.0125 29.4375 25.7875 29.3125C25.5625 29.1875 25.3875 29.025 25.2625 28.825L23.5 26.2L21.7375 28.825C21.6125 29.025 21.4375 29.1875 21.2125 29.3125C20.9875 29.4375 20.75 29.5 20.5 29.5H13Z" fill="#2DA482"/>
</svg>
